<?xml version="1.0" encoding="utf-8"?>
<!-- Generator: Adobe Illustrator 25.0.0, SVG Export Plug-In . SVG Version: 6.00 Build 0)  -->
<svg version="1.1" id="Layer_1" xmlns="http://www.w3.org/2000/svg" xmlns:xlink="http://www.w3.org/1999/xlink" x="0px" y="0px"
	 viewBox="0 0 72 72" style="enable-background:new 0 0 72 72;" xml:space="preserve">
<style type="text/css">
	.st0{fill:#1A0D22;}
	.st1{fill:url(#SVGID_1_);}
	.st2{fill:url(#SVGID_2_);}
	.st3{fill:none;}
	.st4{fill:url(#SVGID_3_);}
	.st5{fill:url(#SVGID_4_);}
	.st6{fill:url(#SVGID_5_);}
	.st7{fill:url(#SVGID_6_);}
	.st8{fill:#FFFFFF;}
	.st9{font-family:'FuturaBT-Medium';}
	.st10{font-size:9.7579px;}
</style>
<path class="st0" d="M36,67.9L36,67.9C18.38,67.9,4.1,53.62,4.1,36v0C4.1,18.38,18.38,4.1,36,4.1h0c17.62,0,31.9,14.28,31.9,31.9v0
	C67.9,53.62,53.62,67.9,36,67.9z"/>
<g>
	<linearGradient id="SVGID_1_" gradientUnits="userSpaceOnUse" x1="39.1269" y1="28.3116" x2="49.6537" y2="17.2541">
		<stop  offset="6.490977e-08" style="stop-color:#65FBFE"/>
		<stop  offset="1" style="stop-color:#2B5CDB"/>
	</linearGradient>
	<path class="st1" d="M54.71,21.2l-14.22,7.32l-2.79-1.64l9.64-5.09c3.78-2.01-2.82-5.67-4.56-6.58L54.71,21.2z"/>
	<linearGradient id="SVGID_2_" gradientUnits="userSpaceOnUse" x1="45.7796" y1="27.4972" x2="46.3988" y2="46.9584">
		<stop  offset="0" style="stop-color:#2B5CDB"/>
		<stop  offset="1" style="stop-color:#65FBFE"/>
	</linearGradient>
	<path class="st2" d="M54.95,40.15l-17.26,8.54l0.01-21.81l2.79,1.64v14.33c0,0,0.35,2.48,3.05,1.73L54.95,40.15z"/>
	<path class="st3" d="M18.81,18.24"/>
	<path class="st3" d="M42.37,15.01c0,0,0.01,0,0.02,0.01c0.02,0.01,0.06,0.03,0.11,0.05c0.04,0.02,0.08,0.04,0.14,0.07
		c0.02,0.01,0.04,0.02,0.06,0.03c0.02,0.01,0.05,0.03,0.08,0.04"/>
	<linearGradient id="SVGID_3_" gradientUnits="userSpaceOnUse" x1="18.8136" y1="27.6014" x2="35.9308" y2="27.6014">
		<stop  offset="6.490977e-08" style="stop-color:#65FBFE"/>
		<stop  offset="1" style="stop-color:#2B5CDB"/>
	</linearGradient>
	<path class="st4" d="M35.93,26.97v2.98l-12.69-6.38c0,0-2.87-1.72-3.1,2.12l-1.33,11.28V18.24L35.93,26.97z"/>
	<linearGradient id="SVGID_4_" gradientUnits="userSpaceOnUse" x1="27.7751" y1="17.758" x2="39.8499" y2="18.6868">
		<stop  offset="0" style="stop-color:#4F009A"/>
		<stop  offset="1" style="stop-color:#F93798"/>
	</linearGradient>
	<path class="st5" d="M32.15,20.99c0,0-3.28-1.86-0.95-3.5c0,0,2.21-2.04,6.82-0.95c0,0,1.79,0.63,2.42,1.97
		c0,0,0.08-2.85-5.16-3.07c0,0-5.52-0.12-5.71,3.1C29.58,18.55,29.43,20.03,32.15,20.99z"/>
	<linearGradient id="SVGID_5_" gradientUnits="userSpaceOnUse" x1="30.4692" y1="42.9768" x2="23.9673" y2="32.6269">
		<stop  offset="0" style="stop-color:#4F009A"/>
		<stop  offset="1" style="stop-color:#F93798"/>
	</linearGradient>
	<path class="st6" d="M26.66,31.51c0,0-3.07,2.5-0.6,7.92c0,0,2.03,4,4.27,0c0,0-1.9,5.53-4.93,0.91
		C25.4,40.33,22.62,33.72,26.66,31.51z"/>
	<linearGradient id="SVGID_6_" gradientUnits="userSpaceOnUse" x1="46.0346" y1="40.6389" x2="51.6076" y2="27.1045">
		<stop  offset="0" style="stop-color:#4F009A"/>
		<stop  offset="0.1503" style="stop-color:#53019A"/>
		<stop  offset="0.304" style="stop-color:#5F059A"/>
		<stop  offset="0.4593" style="stop-color:#740C9A"/>
		<stop  offset="0.6159" style="stop-color:#911599"/>
		<stop  offset="0.7734" style="stop-color:#B62199"/>
		<stop  offset="0.9295" style="stop-color:#E23098"/>
		<stop  offset="1" style="stop-color:#F93798"/>
	</linearGradient>
	<path class="st7" d="M47.81,28.52c0,0,2.72,0.49,2.34,5.77c0,0-0.69,5-3.49,4.16c0,0,2.26,2.32,3.98-1.17c0,0,1.64-3.94,0-7.08
		C50.64,30.2,49.73,27.72,47.81,28.52z"/>
</g>
<text transform="matrix(1 0 0 1 20.4196 59.8405)" class="st8 st9 st10">NiN.AI</text>
</svg>
